<?xml version="1.0" standalone="no"?>
<!DOCTYPE svg PUBLIC "-//W3C//DTD SVG 20010904//EN"
 "http://www.w3.org/TR/2001/REC-SVG-20010904/DTD/svg10.dtd">
<svg version="1.0" xmlns="http://www.w3.org/2000/svg"
 width="337.000000pt" height="337.000000pt" viewBox="0 0 337.000000 337.000000"
 preserveAspectRatio="xMidYMid meet">
<metadata>
Created by potrace 1.14, written by Peter Selinger 2001-2017
</metadata>
<g transform="translate(0.000000,337.000000) scale(0.100000,-0.100000)"
fill="#000000" stroke="none">
<path d="M1092 3340 c-115 -59 -131 -218 -30 -293 35 -25 96 -50 107 -43 4 3
12 1 19 -3 15 -9 116 -187 212 -374 l75 -146 -36 -38 c-20 -21 -39 -45 -42
-54 -5 -15 -22 -16 -144 -12 l-138 5 -295 -99 c-162 -55 -309 -107 -326 -116
-47 -24 -94 -77 -123 -137 l-26 -55 3 -600 c2 -636 4 -661 51 -754 23 -44 100
-117 156 -146 26 -13 50 -40 74 -80 20 -33 48 -65 61 -72 21 -9 139 -37 260
-59 14 -3 39 -9 55 -14 31 -9 167 -38 220 -47 17 -2 91 -18 165 -34 74 -17
144 -32 155 -34 11 -3 34 -8 50 -12 17 -3 37 -7 45 -9 42 -6 96 -16 101 -20 3
-2 21 -6 40 -9 19 -3 50 -10 69 -15 221 -57 376 -67 452 -29 26 13 68 35 95
48 26 14 51 29 54 34 3 5 8 8 10 7 4 -2 92 38 235 106 51 24 75 51 119 137 14
27 35 46 68 63 66 34 99 66 128 122 l24 47 1 693 c1 536 -1 705 -11 742 -23
87 -84 157 -171 195 -63 29 -109 34 -454 51 -69 3 -136 8 -150 9 -14 2 -55 4
-91 4 l-67 1 -22 54 c-12 30 -37 73 -57 95 -40 47 -39 64 2 125 33 49 175 296
175 305 0 4 16 32 35 63 30 48 41 57 79 67 120 30 164 191 80 291 -96 113
-298 57 -320 -88 -7 -44 -1 -72 30 -142 6 -15 -106 -221 -230 -420 l-59 -95
-85 1 -85 2 -22 38 c-13 22 -35 62 -49 89 -15 28 -34 61 -44 75 -9 14 -28 45
-42 70 -14 25 -49 87 -78 138 -38 67 -53 103 -51 125 8 115 4 147 -22 185 -35
49 -76 72 -140 78 -40 4 -61 0 -95 -16z"/>
</g>
</svg>
