<?xml version="1.0" standalone="no"?>
<!DOCTYPE svg PUBLIC "-//W3C//DTD SVG 20010904//EN"
 "http://www.w3.org/TR/2001/REC-SVG-20010904/DTD/svg10.dtd">
<svg version="1.0" xmlns="http://www.w3.org/2000/svg"
 width="320.000000pt" height="320.000000pt" viewBox="0 0 320.000000 320.000000"
 preserveAspectRatio="xMidYMid meet">
<metadata>
Created by potrace 1.14, written by Peter Selinger 2001-2017
</metadata>
<g transform="translate(0.000000,320.000000) scale(0.100000,-0.100000)"
fill="#000000" stroke="none">
<path d="M2319 3188 c-1 -7 -1 -16 0 -20 0 -3 -15 -28 -34 -55 -19 -26 -48
-73 -66 -103 -17 -30 -59 -98 -93 -150 -35 -52 -66 -102 -69 -110 -4 -8 -27
-46 -52 -85 -24 -38 -55 -90 -69 -115 -43 -81 -57 -93 -98 -85 -20 4 -44 12
-53 19 -19 14 -12 32 107 256 36 69 85 161 108 205 24 44 51 97 61 117 10 20
27 39 38 43 26 8 32 27 16 49 -18 25 -52 6 -52 -29 0 -14 -7 -33 -15 -43 -8
-9 -18 -25 -21 -35 -4 -10 -27 -51 -52 -92 -25 -41 -45 -77 -45 -81 0 -3 -17
-36 -39 -72 -21 -37 -62 -112 -91 -167 -29 -55 -56 -105 -61 -111 -5 -6 -5
-15 -1 -19 4 -5 2 -5 -5 -2 -6 4 -13 2 -15 -4 -2 -6 -20 9 -39 34 l-36 46 1
192 c1 148 -2 193 -12 197 -17 6 -30 -7 -16 -16 7 -4 11 -71 11 -184 0 -97 4
-181 7 -187 4 -6 -2 -18 -14 -28 -11 -10 -20 -24 -20 -33 0 -23 -14 -40 -37
-44 -16 -3 -37 13 -84 66 -35 39 -71 80 -79 92 -8 12 -33 41 -56 66 -23 25
-55 61 -70 80 -29 35 -82 95 -119 134 -69 73 -94 107 -89 120 3 8 -3 19 -15
25 -17 9 -22 8 -31 -10 -7 -11 -10 -22 -8 -23 2 -1 15 -10 31 -19 15 -10 75
-79 135 -154 59 -74 132 -166 162 -203 92 -112 124 -153 137 -171 11 -15 7
-21 -41 -47 -45 -26 -102 -89 -118 -132 -3 -8 -34 -15 -108 -25 -44 -6 -97
-14 -130 -20 -14 -2 -63 -9 -110 -15 -47 -6 -96 -13 -110 -15 -14 -2 -47 -7
-75 -10 -207 -26 -315 -45 -347 -61 -16 -8 -31 -26 -35 -42 -3 -15 -7 -324 -7
-686 -1 -756 -4 -724 77 -745 25 -6 59 -11 76 -11 44 0 61 -10 61 -35 0 -18 7
-24 36 -29 29 -6 34 -10 29 -26 -4 -11 -8 -32 -11 -47 -3 -16 -10 -46 -15 -67
-12 -44 -2 -57 39 -50 44 8 60 23 109 99 l48 75 60 -5 c33 -3 78 -7 100 -10
72 -8 169 -17 209 -19 26 -1 42 -8 48 -19 4 -9 12 -25 17 -35 13 -26 62 -18
87 14 14 17 28 24 40 21 17 -5 94 -14 199 -23 39 -3 112 -10 190 -19 22 -2 77
-7 122 -10 90 -7 118 -11 132 -20 13 -8 57 -88 70 -128 15 -45 41 -68 75 -65
35 3 46 17 50 64 8 94 18 133 37 139 10 3 21 14 24 25 4 13 22 21 67 29 33 6
64 8 69 6 4 -3 18 -26 30 -52 32 -66 64 -93 108 -93 58 0 61 6 45 85 -21 112
-29 103 96 122 19 2 46 11 60 19 14 7 32 16 42 20 9 3 19 16 22 27 3 12 6 355
6 763 l0 740 -27 24 c-23 20 -362 189 -438 218 -53 20 -78 20 -190 1 -61 -10
-135 -21 -165 -25 -30 -3 -57 -7 -60 -8 -3 0 -22 16 -42 36 l-37 36 19 25 c11
14 20 28 20 32 0 4 24 44 53 88 29 45 56 89 60 97 4 8 17 32 29 52 13 20 46
74 73 119 28 45 55 89 60 98 6 9 21 34 34 56 14 22 28 42 31 45 3 3 16 22 29
43 12 20 31 42 42 48 15 8 17 14 9 29 -12 22 -29 26 -31 8z"/>
</g>
</svg>
